<?xml version="1.0" standalone="no"?>
<!DOCTYPE svg PUBLIC "-//W3C//DTD SVG 20010904//EN"
 "http://www.w3.org/TR/2001/REC-SVG-20010904/DTD/svg10.dtd">
<svg version="1.0" xmlns="http://www.w3.org/2000/svg"
 width="2133.000000pt" height="2133.000000pt" viewBox="0 0 2133.000000 2133.000000"
 preserveAspectRatio="xMidYMid meet">

<g transform="translate(0.000000,2133.000000) scale(0.100000,-0.100000)"
fill="#000000" stroke="none">
<path d="M14290 11310 l0 -730 160 0 160 0 2 416 3 416 320 -416 320 -415 138
-1 137 0 0 730 0 730 -165 0 -165 0 -2 -426 -3 -427 -324 427 -324 426 -129 0
-128 0 0 -730z"/>
<path d="M15911 11317 c-133 -397 -241 -725 -241 -730 0 -4 74 -7 164 -7 l164
0 54 163 55 162 219 3 220 2 54 -165 54 -165 167 0 167 0 -162 493 c-89 270
-198 599 -242 730 l-79 237 -177 0 -176 0 -241 -723z m498 103 c40 -135 74
-253 77 -262 5 -17 -7 -18 -161 -18 -155 0 -167 1 -162 18 58 208 162 530 168
520 4 -7 39 -123 78 -258z"/>
<path d="M17130 11310 l0 -730 160 0 160 0 2 432 3 432 150 -312 149 -312 92
0 91 0 149 311 149 311 3 -431 2 -431 165 0 165 0 0 730 0 730 -179 0 -178 0
-184 -381 -183 -381 -29 59 c-15 32 -97 202 -181 378 l-153 320 -176 3 -177 2
0 -730z"/>
<path d="M18840 11310 l0 -730 495 0 495 0 0 150 0 150 -335 0 -335 0 0 155 0
155 280 0 280 0 0 135 0 135 -280 0 -280 0 0 145 0 145 325 0 325 0 0 145 0
145 -485 0 -485 0 0 -730z"/>
<path d="M6929 10127 c-102 -29 -208 -120 -254 -220 -122 -262 24 -585 284
-628 117 -19 232 23 320 116 172 181 161 471 -24 644 -70 65 -125 89 -220 96
-34 3 -80 -1 -106 -8z m196 -91 c173 -81 246 -324 153 -509 -27 -54 -94 -124
-143 -150 -31 -17 -58 -22 -120 -22 -69 0 -86 4 -126 27 -60 35 -115 97 -148
167 -22 49 -26 69 -26 156 0 93 2 105 32 166 18 36 49 83 69 103 82 85 208
110 309 62z"/>
<path d="M11627 10130 c-208 -53 -343 -309 -283 -536 78 -295 389 -415 595
-229 l41 37 0 -61 0 -61 35 0 35 0 0 210 0 210 -125 0 -125 0 0 -35 0 -35 90
0 90 0 0 -68 c0 -68 0 -69 -47 -115 -69 -69 -122 -92 -213 -92 -60 0 -85 5
-123 25 -62 31 -122 96 -155 168 -23 49 -27 71 -27 152 0 113 18 172 73 245
20 27 59 63 86 80 45 27 57 30 135 30 115 0 173 -29 237 -119 l20 -28 29 25
29 25 -26 40 c-54 81 -149 132 -261 137 -40 3 -89 0 -110 -5z"/>
<path d="M5822 10108 c8 -13 81 -134 161 -270 l147 -246 0 -156 0 -156 40 0
40 0 0 161 0 160 155 259 c85 143 155 262 155 265 0 3 -19 5 -42 5 l-43 0
-129 -221 c-72 -121 -133 -222 -136 -224 -4 -3 -66 96 -137 218 l-130 222 -48
3 -48 3 15 -23z"/>
<path d="M7630 9891 c0 -271 11 -354 59 -449 58 -114 150 -166 297 -165 166 0
272 87 320 260 12 44 17 123 21 326 l5 267 -46 0 -46 0 0 -264 c0 -239 -2
-270 -21 -331 -26 -84 -92 -157 -160 -175 -107 -29 -229 9 -281 88 -57 85 -61
115 -66 410 l-4 272 -39 0 -39 0 0 -239z"/>
<path d="M8610 9705 l0 -425 40 0 40 0 0 155 0 156 126 -3 127 -3 92 -150 93
-150 47 -3 c26 -2 45 0 42 5 -2 4 -45 76 -95 159 -51 83 -92 153 -92 157 0 3
20 15 44 27 81 39 126 124 126 239 -1 106 -55 198 -144 240 -38 19 -61 21
-244 21 l-202 0 0 -425z m434 321 c103 -78 100 -263 -4 -333 -31 -21 -44 -23
-191 -23 l-159 0 0 196 0 196 158 -4 c157 -3 159 -3 196 -32z"/>
<path d="M9730 10095 l0 -35 145 0 145 0 0 -390 0 -390 40 0 40 0 0 390 0 390
150 0 150 0 0 35 0 35 -335 0 -335 0 0 -35z"/>
<path d="M10786 10122 c-8 -13 -328 -804 -334 -825 -4 -16 1 -18 38 -15 l42 3
52 130 52 130 181 3 c137 2 183 -1 190 -10 6 -7 32 -68 58 -135 l49 -123 43 0
43 0 -16 38 c-8 20 -85 211 -171 425 l-155 387 -33 0 c-19 0 -36 -4 -39 -8z
m118 -295 c42 -106 76 -198 76 -205 0 -9 -42 -12 -160 -12 -88 0 -160 3 -160
8 -1 13 155 402 161 402 3 0 41 -87 83 -193z"/>
<path d="M12690 9705 l0 -425 280 0 280 0 0 35 0 35 -237 2 -238 3 -3 388 -2
387 -40 0 -40 0 0 -425z"/>
<path d="M13450 9705 l0 -425 40 0 40 0 0 425 0 425 -40 0 -40 0 0 -425z"/>
<path d="M13830 9705 l0 -425 40 0 40 0 2 348 3 347 264 -345 c260 -342 263
-345 302 -348 l39 -3 0 425 0 426 -40 0 -40 0 -2 -350 -3 -350 -265 350 c-265
349 -265 349 -302 350 l-38 0 0 -425z"/>
<path d="M14820 9705 l0 -425 280 0 280 0 0 35 0 35 -237 2 -238 3 -3 163 -2
162 205 0 205 0 0 35 0 35 -205 0 -205 0 0 155 0 155 235 0 235 0 0 35 0 35
-275 0 -275 0 0 -425z"/>
<path d="M16000 9705 l0 -425 40 0 40 0 0 200 0 200 245 0 245 0 0 -200 0
-200 40 0 40 0 0 425 0 425 -40 0 -40 0 0 -190 0 -190 -242 2 -243 3 -3 188
-2 187 -40 0 -40 0 0 -425z"/>
<path d="M17206 10122 c-8 -13 -328 -804 -334 -825 -4 -16 1 -18 38 -15 l42 3
52 130 52 130 181 3 c137 2 183 -1 190 -10 6 -7 32 -68 58 -135 l49 -123 43 0
43 0 -16 38 c-8 20 -85 211 -171 425 l-155 387 -33 0 c-19 0 -36 -4 -39 -8z
m118 -295 c42 -106 76 -198 76 -205 0 -9 -42 -12 -160 -12 -88 0 -160 3 -160
8 -1 13 155 402 161 402 3 0 41 -87 83 -193z"/>
<path d="M17830 9705 l0 -425 40 0 40 0 0 155 0 156 126 -3 127 -3 92 -150 93
-150 47 -3 c26 -2 45 0 42 5 -2 4 -45 76 -95 159 -51 83 -92 153 -92 157 0 3
20 15 44 27 81 39 126 124 126 239 -1 106 -55 198 -144 240 -38 19 -61 21
-244 21 l-202 0 0 -425z m434 321 c103 -78 100 -263 -4 -333 -31 -21 -44 -23
-191 -23 l-159 0 0 196 0 196 158 -4 c157 -3 159 -3 196 -32z"/>
<path d="M18670 9705 l0 -425 280 0 280 0 0 35 0 35 -237 2 -238 3 -3 163 -2
162 205 0 205 0 0 35 0 35 -205 0 -205 0 0 155 0 155 235 0 235 0 0 35 0 35
-275 0 -275 0 0 -425z"/>
</g>
</svg>
